<mxfile host="app.diagrams.net" modified="2021-06-21T09:15:34.456Z" agent="5.0 (Windows NT 10.0; Win64; x64) AppleWebKit/537.36 (KHTML, like Gecko) Chrome/91.0.4472.106 Safari/537.36" etag="QuMj-xyrmQOkXh5kTxo2" version="14.8.0" type="github">
  <diagram id="fsZIwqngfAWgFYjcoPJv" name="Page-1">
    <mxGraphModel dx="871" dy="-85" grid="1" gridSize="10" guides="1" tooltips="1" connect="1" arrows="1" fold="1" page="1" pageScale="1" pageWidth="827" pageHeight="1169" math="0" shadow="0">
      <root>
        <mxCell id="0" />
        <mxCell id="1" parent="0" />
        <mxCell id="i5rrG2KV7b-K8Bm2L8jd-1" value="A" style="ellipse;whiteSpace=wrap;html=1;aspect=fixed;verticalAlign=middle;fillColor=#ffe6cc;strokeColor=#d79b00;" parent="1" vertex="1">
          <mxGeometry x="672.5" y="1500" width="40" height="40" as="geometry" />
        </mxCell>
        <mxCell id="i5rrG2KV7b-K8Bm2L8jd-2" value="B" style="ellipse;whiteSpace=wrap;html=1;aspect=fixed;verticalAlign=middle;fillColor=#ffe6cc;strokeColor=#d79b00;" parent="1" vertex="1">
          <mxGeometry x="654.5" y="1734" width="40" height="40" as="geometry" />
        </mxCell>
        <mxCell id="i5rrG2KV7b-K8Bm2L8jd-3" value="&lt;span style=&quot;color: rgb(36 , 41 , 46) ; font-family: &amp;#34;katex_math&amp;#34; ; font-style: italic ; text-align: left&quot;&gt;β&lt;/span&gt;" style="ellipse;whiteSpace=wrap;html=1;aspect=fixed;verticalAlign=middle;fillColor=#ffe6cc;strokeColor=#d79b00;" parent="1" vertex="1">
          <mxGeometry x="920" y="1640" width="40" height="40" as="geometry" />
        </mxCell>
        <mxCell id="i5rrG2KV7b-K8Bm2L8jd-4" value="&lt;span style=&quot;color: rgb(36 , 41 , 46) ; font-family: &amp;#34;katex_math&amp;#34; ; font-style: italic ; text-align: left&quot;&gt;α&lt;/span&gt;" style="ellipse;whiteSpace=wrap;html=1;aspect=fixed;verticalAlign=middle;fillColor=#ffe6cc;strokeColor=#d79b00;" parent="1" vertex="1">
          <mxGeometry x="799" y="1670" width="40" height="40" as="geometry" />
        </mxCell>
        <mxCell id="i5rrG2KV7b-K8Bm2L8jd-5" value="&lt;span style=&quot;color: rgb(36 , 41 , 46) ; font-family: &amp;#34;katex_math&amp;#34; ; text-align: left&quot;&gt;1&lt;/span&gt;" style="ellipse;whiteSpace=wrap;html=1;aspect=fixed;verticalAlign=middle;fillColor=#ffe6cc;strokeColor=#d79b00;" parent="1" vertex="1">
          <mxGeometry x="997" y="1490" width="40" height="40" as="geometry" />
        </mxCell>
        <mxCell id="i5rrG2KV7b-K8Bm2L8jd-6" value="&lt;span style=&quot;color: rgb(36 , 41 , 46) ; font-family: &amp;#34;katex_math&amp;#34; ; text-align: left&quot;&gt;2&lt;/span&gt;" style="ellipse;whiteSpace=wrap;html=1;aspect=fixed;verticalAlign=middle;fillColor=#ffe6cc;strokeColor=#d79b00;" parent="1" vertex="1">
          <mxGeometry x="1062" y="1720" width="40" height="40" as="geometry" />
        </mxCell>
        <mxCell id="i5rrG2KV7b-K8Bm2L8jd-7" value="A4" style="ellipse;whiteSpace=wrap;html=1;aspect=fixed;verticalAlign=middle;fillColor=#d5e8d4;strokeColor=#82b366;" parent="1" vertex="1">
          <mxGeometry x="852" y="1800" width="40" height="40" as="geometry" />
        </mxCell>
        <mxCell id="i5rrG2KV7b-K8Bm2L8jd-8" value="A2" style="ellipse;whiteSpace=wrap;html=1;aspect=fixed;verticalAlign=middle;fillColor=#d5e8d4;strokeColor=#82b366;" parent="1" vertex="1">
          <mxGeometry x="730" y="1590" width="40" height="40" as="geometry" />
        </mxCell>
        <mxCell id="i5rrG2KV7b-K8Bm2L8jd-9" value="A3" style="ellipse;whiteSpace=wrap;html=1;aspect=fixed;verticalAlign=middle;fillColor=#d5e8d4;strokeColor=#82b366;" parent="1" vertex="1">
          <mxGeometry x="1010" y="1840" width="40" height="40" as="geometry" />
        </mxCell>
        <mxCell id="i5rrG2KV7b-K8Bm2L8jd-10" value="A1" style="ellipse;whiteSpace=wrap;html=1;aspect=fixed;verticalAlign=middle;fillColor=#d5e8d4;strokeColor=#82b366;" parent="1" vertex="1">
          <mxGeometry x="812" y="1470" width="40" height="40" as="geometry" />
        </mxCell>
        <mxCell id="i5rrG2KV7b-K8Bm2L8jd-11" value="P1" style="ellipse;whiteSpace=wrap;html=1;aspect=fixed;verticalAlign=middle;fillColor=#d5e8d4;strokeColor=#82b366;" parent="1" vertex="1">
          <mxGeometry x="560" y="1620" width="40" height="40" as="geometry" />
        </mxCell>
        <mxCell id="i5rrG2KV7b-K8Bm2L8jd-12" value="P2" style="ellipse;whiteSpace=wrap;html=1;aspect=fixed;verticalAlign=middle;fillColor=#d5e8d4;strokeColor=#82b366;" parent="1" vertex="1">
          <mxGeometry x="500" y="1440" width="40" height="40" as="geometry" />
        </mxCell>
        <mxCell id="i5rrG2KV7b-K8Bm2L8jd-13" value="P3" style="ellipse;whiteSpace=wrap;html=1;aspect=fixed;verticalAlign=middle;fillColor=#d5e8d4;strokeColor=#82b366;" parent="1" vertex="1">
          <mxGeometry x="500" y="1733.5" width="40" height="40" as="geometry" />
        </mxCell>
        <mxCell id="i5rrG2KV7b-K8Bm2L8jd-14" value="P4" style="ellipse;whiteSpace=wrap;html=1;aspect=fixed;verticalAlign=middle;fillColor=#d5e8d4;strokeColor=#82b366;" parent="1" vertex="1">
          <mxGeometry x="634.5" y="1840" width="40" height="40" as="geometry" />
        </mxCell>
        <mxCell id="i5rrG2KV7b-K8Bm2L8jd-15" value="&lt;font style=&quot;font-size: 11px&quot;&gt;BELONGS_TO&lt;/font&gt;" style="html=1;verticalAlign=bottom;endArrow=open;endSize=8;entryX=0;entryY=1;entryDx=0;entryDy=0;exitX=1;exitY=0;exitDx=0;exitDy=0;fontSize=9;fillColor=#dae8fc;strokeColor=#6c8ebf;" parent="1" source="i5rrG2KV7b-K8Bm2L8jd-11" target="i5rrG2KV7b-K8Bm2L8jd-1" edge="1">
          <mxGeometry relative="1" as="geometry">
            <mxPoint x="830" y="1620" as="sourcePoint" />
            <mxPoint x="750" y="1620" as="targetPoint" />
          </mxGeometry>
        </mxCell>
        <mxCell id="i5rrG2KV7b-K8Bm2L8jd-16" value="&lt;font style=&quot;font-size: 11px&quot;&gt;BELONGS_TO&lt;/font&gt;" style="html=1;verticalAlign=bottom;endArrow=open;endSize=8;entryX=0;entryY=0.5;entryDx=0;entryDy=0;exitX=1;exitY=1;exitDx=0;exitDy=0;fontSize=9;fillColor=#dae8fc;strokeColor=#6c8ebf;" parent="1" source="i5rrG2KV7b-K8Bm2L8jd-12" target="i5rrG2KV7b-K8Bm2L8jd-1" edge="1">
          <mxGeometry relative="1" as="geometry">
            <mxPoint x="550" y="1600" as="sourcePoint" />
            <mxPoint x="659" y="1600" as="targetPoint" />
          </mxGeometry>
        </mxCell>
        <mxCell id="i5rrG2KV7b-K8Bm2L8jd-17" value="&lt;font style=&quot;font-size: 11px&quot;&gt;BELONGS_TO&lt;/font&gt;" style="html=1;verticalAlign=bottom;endArrow=open;endSize=8;entryX=0;entryY=0.5;entryDx=0;entryDy=0;exitX=1;exitY=0.5;exitDx=0;exitDy=0;fontSize=9;fillColor=#dae8fc;strokeColor=#6c8ebf;" parent="1" source="i5rrG2KV7b-K8Bm2L8jd-13" target="i5rrG2KV7b-K8Bm2L8jd-2" edge="1">
          <mxGeometry relative="1" as="geometry">
            <mxPoint x="561.0021356237311" y="1755.7178643762688" as="sourcePoint" />
            <mxPoint x="611.717864376269" y="1680.002135623731" as="targetPoint" />
          </mxGeometry>
        </mxCell>
        <mxCell id="i5rrG2KV7b-K8Bm2L8jd-18" value="&lt;font style=&quot;font-size: 11px&quot;&gt;BELONGS_TO&lt;/font&gt;" style="html=1;verticalAlign=bottom;endArrow=open;endSize=8;entryX=0;entryY=1;entryDx=0;entryDy=0;exitX=0.5;exitY=0;exitDx=0;exitDy=0;fontSize=9;fillColor=#dae8fc;strokeColor=#6c8ebf;" parent="1" source="i5rrG2KV7b-K8Bm2L8jd-14" target="i5rrG2KV7b-K8Bm2L8jd-2" edge="1">
          <mxGeometry x="-0.1573" y="-3" relative="1" as="geometry">
            <mxPoint x="582.6421356237311" y="1831.717864376269" as="sourcePoint" />
            <mxPoint x="682.3578643762689" y="1780.0021356237312" as="targetPoint" />
            <mxPoint as="offset" />
          </mxGeometry>
        </mxCell>
        <mxCell id="i5rrG2KV7b-K8Bm2L8jd-19" value="&lt;font style=&quot;font-size: 11px ; line-height: 50%&quot;&gt;LINKED&lt;/font&gt;" style="html=1;verticalAlign=bottom;endArrow=open;endSize=8;fontSize=6;entryX=1;entryY=0;entryDx=0;entryDy=0;dashed=1;dashPattern=1 1;startArrow=classic;startFill=1;fillColor=#e1d5e7;strokeColor=#9673a6;exitX=0;exitY=1;exitDx=0;exitDy=0;" parent="1" source="i5rrG2KV7b-K8Bm2L8jd-4" target="i5rrG2KV7b-K8Bm2L8jd-2" edge="1">
          <mxGeometry relative="1" as="geometry">
            <mxPoint x="793" y="1690" as="sourcePoint" />
            <mxPoint x="690" y="1750" as="targetPoint" />
          </mxGeometry>
        </mxCell>
        <mxCell id="i5rrG2KV7b-K8Bm2L8jd-20" value="&lt;font style=&quot;font-size: 11px&quot;&gt;BELONGS_TO&lt;/font&gt;" style="html=1;verticalAlign=bottom;endArrow=open;endSize=8;exitX=1;exitY=0;exitDx=0;exitDy=0;fontSize=9;fillColor=#dae8fc;strokeColor=#6c8ebf;entryX=0;entryY=1;entryDx=0;entryDy=0;" parent="1" source="i5rrG2KV7b-K8Bm2L8jd-7" target="i5rrG2KV7b-K8Bm2L8jd-3" edge="1">
          <mxGeometry x="-0.0848" y="-9" relative="1" as="geometry">
            <mxPoint x="897.0021356237311" y="1631.7178643762688" as="sourcePoint" />
            <mxPoint x="929" y="1680" as="targetPoint" />
            <mxPoint as="offset" />
          </mxGeometry>
        </mxCell>
        <mxCell id="i5rrG2KV7b-K8Bm2L8jd-21" value="&lt;font style=&quot;font-size: 11px&quot;&gt;BELONGS_TO&lt;/font&gt;" style="html=1;verticalAlign=bottom;endArrow=open;endSize=8;exitX=1;exitY=0.5;exitDx=0;exitDy=0;fontSize=9;entryX=0;entryY=0;entryDx=0;entryDy=0;fillColor=#dae8fc;strokeColor=#6c8ebf;" parent="1" source="i5rrG2KV7b-K8Bm2L8jd-8" target="i5rrG2KV7b-K8Bm2L8jd-3" edge="1">
          <mxGeometry relative="1" as="geometry">
            <mxPoint x="887" y="1580" as="sourcePoint" />
            <mxPoint x="850" y="1680" as="targetPoint" />
          </mxGeometry>
        </mxCell>
        <mxCell id="i5rrG2KV7b-K8Bm2L8jd-22" value="&lt;font style=&quot;font-size: 11px&quot;&gt;BELONGS_TO&lt;/font&gt;" style="html=1;verticalAlign=bottom;endArrow=open;endSize=8;fontSize=9;exitX=0.5;exitY=0;exitDx=0;exitDy=0;entryX=1;entryY=1;entryDx=0;entryDy=0;fillColor=#dae8fc;strokeColor=#6c8ebf;" parent="1" source="i5rrG2KV7b-K8Bm2L8jd-9" target="i5rrG2KV7b-K8Bm2L8jd-3" edge="1">
          <mxGeometry relative="1" as="geometry">
            <mxPoint x="970" y="1740" as="sourcePoint" />
            <mxPoint x="860" y="1690" as="targetPoint" />
          </mxGeometry>
        </mxCell>
        <mxCell id="i5rrG2KV7b-K8Bm2L8jd-23" value="&lt;font style=&quot;font-size: 11px&quot;&gt;LINKED&lt;/font&gt;" style="html=1;verticalAlign=bottom;endArrow=open;endSize=8;exitX=0;exitY=0.5;exitDx=0;exitDy=0;fontSize=9;entryX=1;entryY=0.5;entryDx=0;entryDy=0;dashed=1;dashPattern=1 1;startArrow=classic;startFill=1;fillColor=#e1d5e7;strokeColor=#9673a6;" parent="1" source="i5rrG2KV7b-K8Bm2L8jd-8" target="i5rrG2KV7b-K8Bm2L8jd-11" edge="1">
          <mxGeometry relative="1" as="geometry">
            <mxPoint x="824.5" y="1700" as="sourcePoint" />
            <mxPoint x="698.6421356237311" y="1749.857864376269" as="targetPoint" />
          </mxGeometry>
        </mxCell>
        <mxCell id="i5rrG2KV7b-K8Bm2L8jd-24" value="&lt;font style=&quot;font-size: 11px ; line-height: 50%&quot;&gt;LINKED&lt;/font&gt;" style="html=1;verticalAlign=bottom;endArrow=open;endSize=8;fontSize=6;entryX=1;entryY=0;entryDx=0;entryDy=0;dashed=1;dashPattern=1 1;startArrow=classic;startFill=1;fillColor=#e1d5e7;strokeColor=#9673a6;exitX=0;exitY=0.5;exitDx=0;exitDy=0;" parent="1" source="i5rrG2KV7b-K8Bm2L8jd-7" target="i5rrG2KV7b-K8Bm2L8jd-14" edge="1">
          <mxGeometry x="-0.0407" relative="1" as="geometry">
            <mxPoint x="720" y="1810" as="sourcePoint" />
            <mxPoint x="698.6421356237311" y="1749.857864376269" as="targetPoint" />
            <mxPoint as="offset" />
          </mxGeometry>
        </mxCell>
        <mxCell id="i5rrG2KV7b-K8Bm2L8jd-25" value="&lt;font style=&quot;font-size: 11px&quot;&gt;BELONGS_TO&lt;/font&gt;" style="html=1;verticalAlign=bottom;endArrow=open;endSize=8;exitX=0.5;exitY=1;exitDx=0;exitDy=0;fontSize=9;entryX=1;entryY=0;entryDx=0;entryDy=0;fillColor=#dae8fc;strokeColor=#6c8ebf;" parent="1" source="i5rrG2KV7b-K8Bm2L8jd-10" target="i5rrG2KV7b-K8Bm2L8jd-4" edge="1">
          <mxGeometry x="-0.3514" y="-2" relative="1" as="geometry">
            <mxPoint x="762.5" y="1650" as="sourcePoint" />
            <mxPoint x="935.8578643762689" y="1655.857864376269" as="targetPoint" />
            <mxPoint as="offset" />
          </mxGeometry>
        </mxCell>
        <mxCell id="i5rrG2KV7b-K8Bm2L8jd-26" value="C3" style="ellipse;whiteSpace=wrap;html=1;aspect=fixed;verticalAlign=middle;fillColor=#d5e8d4;strokeColor=#82b366;" parent="1" vertex="1">
          <mxGeometry x="1180" y="1460" width="40" height="40" as="geometry" />
        </mxCell>
        <mxCell id="i5rrG2KV7b-K8Bm2L8jd-27" value="C2" style="ellipse;whiteSpace=wrap;html=1;aspect=fixed;verticalAlign=middle;fillColor=#d5e8d4;strokeColor=#82b366;" parent="1" vertex="1">
          <mxGeometry x="1110" y="1610" width="40" height="40" as="geometry" />
        </mxCell>
        <mxCell id="i5rrG2KV7b-K8Bm2L8jd-28" value="&lt;font style=&quot;font-size: 11px&quot;&gt;BELONGS_TO&lt;/font&gt;" style="html=1;verticalAlign=bottom;endArrow=open;endSize=8;exitX=0;exitY=0.5;exitDx=0;exitDy=0;fontSize=9;entryX=0.854;entryY=0.25;entryDx=0;entryDy=0;fillColor=#dae8fc;strokeColor=#6c8ebf;entryPerimeter=0;" parent="1" source="i5rrG2KV7b-K8Bm2L8jd-26" target="i5rrG2KV7b-K8Bm2L8jd-5" edge="1">
          <mxGeometry relative="1" as="geometry">
            <mxPoint x="1159.9978643762688" y="1508.2821356237312" as="sourcePoint" />
            <mxPoint x="1101.782135623731" y="1609.997864376269" as="targetPoint" />
          </mxGeometry>
        </mxCell>
        <mxCell id="i5rrG2KV7b-K8Bm2L8jd-29" value="&lt;font style=&quot;font-size: 11px&quot;&gt;BELONGS_TO&lt;/font&gt;" style="html=1;verticalAlign=bottom;endArrow=open;endSize=8;exitX=0;exitY=0;exitDx=0;exitDy=0;fontSize=9;entryX=1;entryY=1;entryDx=0;entryDy=0;fillColor=#dae8fc;strokeColor=#6c8ebf;" parent="1" source="i5rrG2KV7b-K8Bm2L8jd-27" target="i5rrG2KV7b-K8Bm2L8jd-5" edge="1">
          <mxGeometry relative="1" as="geometry">
            <mxPoint x="1125.857864376269" y="1574.142135623731" as="sourcePoint" />
            <mxPoint x="1024.16" y="1590" as="targetPoint" />
          </mxGeometry>
        </mxCell>
        <mxCell id="i5rrG2KV7b-K8Bm2L8jd-30" value="C1" style="ellipse;whiteSpace=wrap;html=1;aspect=fixed;verticalAlign=middle;fillColor=#d5e8d4;strokeColor=#82b366;" parent="1" vertex="1">
          <mxGeometry x="1250" y="1693.5" width="40" height="40" as="geometry" />
        </mxCell>
        <mxCell id="i5rrG2KV7b-K8Bm2L8jd-31" value="C7" style="ellipse;whiteSpace=wrap;html=1;aspect=fixed;verticalAlign=middle;fillColor=#d5e8d4;strokeColor=#82b366;" parent="1" vertex="1">
          <mxGeometry x="999" y="1640" width="40" height="40" as="geometry" />
        </mxCell>
        <mxCell id="i5rrG2KV7b-K8Bm2L8jd-32" value="&lt;font style=&quot;font-size: 11px&quot;&gt;BELONGS_TO&lt;/font&gt;" style="html=1;verticalAlign=bottom;endArrow=open;endSize=8;exitX=0.7;exitY=1.01;exitDx=0;exitDy=0;fontSize=9;entryX=0;entryY=0;entryDx=0;entryDy=0;fillColor=#dae8fc;strokeColor=#6c8ebf;exitPerimeter=0;" parent="1" source="i5rrG2KV7b-K8Bm2L8jd-31" target="i5rrG2KV7b-K8Bm2L8jd-6" edge="1">
          <mxGeometry relative="1" as="geometry">
            <mxPoint x="1155.857864376269" y="1615.857864376269" as="sourcePoint" />
            <mxPoint x="1024.142135623731" y="1614.142135623731" as="targetPoint" />
          </mxGeometry>
        </mxCell>
        <mxCell id="i5rrG2KV7b-K8Bm2L8jd-33" value="&lt;font style=&quot;font-size: 11px&quot;&gt;BELONGS_TO&lt;/font&gt;" style="html=1;verticalAlign=bottom;endArrow=open;endSize=8;exitX=0;exitY=0.5;exitDx=0;exitDy=0;fontSize=9;entryX=1;entryY=0.5;entryDx=0;entryDy=0;fillColor=#dae8fc;strokeColor=#6c8ebf;" parent="1" source="i5rrG2KV7b-K8Bm2L8jd-30" target="i5rrG2KV7b-K8Bm2L8jd-6" edge="1">
          <mxGeometry relative="1" as="geometry">
            <mxPoint x="1037" y="1690.4" as="sourcePoint" />
            <mxPoint x="1077.857864376269" y="1735.857864376269" as="targetPoint" />
          </mxGeometry>
        </mxCell>
        <mxCell id="i5rrG2KV7b-K8Bm2L8jd-34" value="&lt;font style=&quot;font-size: 11px ; line-height: 50%&quot;&gt;LINKED&lt;/font&gt;" style="html=1;verticalAlign=bottom;endArrow=open;endSize=8;fontSize=6;entryX=1;entryY=0;entryDx=0;entryDy=0;dashed=1;dashPattern=1 1;startArrow=classic;startFill=1;fillColor=#e1d5e7;strokeColor=#9673a6;exitX=0;exitY=1;exitDx=0;exitDy=0;" parent="1" source="i5rrG2KV7b-K8Bm2L8jd-5" target="i5rrG2KV7b-K8Bm2L8jd-3" edge="1">
          <mxGeometry x="-0.2776" y="5" relative="1" as="geometry">
            <mxPoint x="855.5" y="1850" as="sourcePoint" />
            <mxPoint x="571" y="1840" as="targetPoint" />
            <mxPoint as="offset" />
          </mxGeometry>
        </mxCell>
        <mxCell id="i5rrG2KV7b-K8Bm2L8jd-35" value="&lt;font style=&quot;font-size: 11px ; line-height: 50%&quot;&gt;LINKED&lt;/font&gt;" style="html=1;verticalAlign=bottom;endArrow=open;endSize=8;fontSize=6;entryX=0;entryY=0;entryDx=0;entryDy=0;dashed=1;dashPattern=1 1;startArrow=classic;startFill=1;fillColor=#e1d5e7;strokeColor=#9673a6;" parent="1" source="i5rrG2KV7b-K8Bm2L8jd-10" target="i5rrG2KV7b-K8Bm2L8jd-31" edge="1">
          <mxGeometry x="-0.2845" y="-1" relative="1" as="geometry">
            <mxPoint x="1012.8578643762689" y="1534.142135623731" as="sourcePoint" />
            <mxPoint x="964.1421356237311" y="1655.857864376269" as="targetPoint" />
            <mxPoint as="offset" />
          </mxGeometry>
        </mxCell>
      </root>
    </mxGraphModel>
  </diagram>
</mxfile>
